<svg width="200" height="60" viewBox="0 0 200 60" fill="none" xmlns="http://www.w3.org/2000/svg">
  <defs>
    <linearGradient id="logo-gradient" x1="0%" y1="0%" x2="100%" y2="0%">
      <stop offset="0%" stop-color="#3B82F6" />
      <stop offset="100%" stop-color="#60A5FA" />
    </linearGradient>
  </defs>
  
  <!-- Stylized L -->
  <path d="M20 15 L20 45 L35 45" stroke="url(#logo-gradient)" stroke-width="4" stroke-linecap="round" stroke-linejoin="round" />
  
  <!-- Minimal I -->
  <path d="M45 15 L45 45" stroke="url(#logo-gradient)" stroke-width="4" stroke-linecap="round" />
  
  <!-- T -->
  <path d="M55 15 L75 15" stroke="url(#logo-gradient)" stroke-width="4" stroke-linecap="round" />
  <path d="M65 15 L65 45" stroke="url(#logo-gradient)" stroke-width="4" stroke-linecap="round" />
  
  <!-- E -->
  <path d="M85 15 L85 45" stroke="url(#logo-gradient)" stroke-width="4" stroke-linecap="round" />
  <path d="M85 15 L105 15" stroke="url(#logo-gradient)" stroke-width="4" stroke-linecap="round" />
  <path d="M85 30 L100 30" stroke="url(#logo-gradient)" stroke-width="4" stroke-linecap="round" />
  <path d="M85 45 L105 45" stroke="url(#logo-gradient)" stroke-width="4" stroke-linecap="round" />
  
  <!-- F -->
  <path d="M115 15 L115 45" stroke="url(#logo-gradient)" stroke-width="4" stroke-linecap="round" />
  <path d="M115 15 L135 15" stroke="url(#logo-gradient)" stroke-width="4" stroke-linecap="round" />
  <path d="M115 30 L130 30" stroke="url(#logo-gradient)" stroke-width="4" stroke-linecap="round" />
  
  <!-- O -->
  <path d="M145 30 C145 22, 150 15, 157.5 15 C165 15, 170 22, 170 30 C170 38, 165 45, 157.5 45 C150 45, 145 38, 145 30 Z" stroke="url(#logo-gradient)" stroke-width="4" stroke-linecap="round" />
  
  <!-- L -->
  <path d="M180 15 L180 45 L195 45" stroke="url(#logo-gradient)" stroke-width="4" stroke-linecap="round" stroke-linejoin="round" />
  
  <!-- D -->
  <path d="M205 15 L205 45" stroke="url(#logo-gradient)" stroke-width="4" stroke-linecap="round" />
  <path d="M205 15 C215 15, 225 20, 225 30 C225 40, 215 45, 205 45" stroke="url(#logo-gradient)" stroke-width="4" stroke-linecap="round" />
</svg> 